<svg width="285" height="396" viewBox="0 0 285 396" fill="none" xmlns="http://www.w3.org/2000/svg">
<path fill-rule="evenodd" clip-rule="evenodd" d="M112.834 83.5C116.804 82.0111 122.745 79.0443 128.701 1.73946C128.775 0.780485 129.577 0 130.539 0C131.537 0 132.353 0.796429 132.378 1.79451L136.282 161.862C189.34 115.868 209.34 93.8766 195.834 90.5C209.334 84.5 205.501 104.333 201.834 115.5C196.885 133.011 195.124 134.002 167.423 149.587L167.423 149.587C158.953 154.352 148.058 160.481 133.906 168.864C134.758 169.724 135.601 170.575 136.434 171.415L136.436 171.416C146.699 181.766 155.395 190.535 159.589 195.696C194.529 173.227 224.427 152.558 217.834 144.5C228.856 141.459 219.835 169.476 209.902 186.001C208.907 187.655 207.394 188.914 205.627 189.692L166.334 207L144.334 216.5L127.531 222.404C147.01 237.563 164.715 250.601 172.718 256.454C223.48 221.642 254.813 195.625 246.334 191C262.972 185.296 245.714 229.757 235.379 245.324C234.404 246.792 232.975 247.852 231.343 248.521L128.07 290.878C147.771 305.174 163.98 316.404 169.74 320.395L169.748 320.4L170.561 320.964C170.866 321.175 171.124 321.354 171.334 321.5C174.238 323.52 170.334 325 168.834 324.5L26.7252 241.481C24.5454 240.208 22.9158 238.162 22.2442 235.728C17.6922 219.234 15.0494 199.853 17.8338 191.5C19.1377 187.588 23.3339 189.5 23.3339 191.5C8.84944 200.595 75.8334 252.807 124.607 288.359C140.475 278.132 155.401 268.265 169.014 258.986L56.3338 198.5C50.3338 195 35.8338 140.5 52.8338 146.5C42.8968 153.021 85.2248 189.243 123.163 218.992C129.74 214.74 136.524 210.419 143.299 206.104L143.301 206.103L143.304 206.101C147.002 203.746 150.697 201.392 154.355 199.052L136.334 187.5C136.334 187.5 128.334 183.5 110.834 170.5C106.246 167.092 101.937 164.062 98.0123 161.302C86.9646 153.533 78.9574 147.903 76.3339 142C72.7782 134 64.8338 80 80.3339 90.5C62.7589 95.7725 101.276 135.887 131.265 166.198C131.593 165.915 131.92 165.634 132.245 165.353C130.85 136.077 121.128 87.8908 112.834 83.5ZM118.135 352.422C137.086 364.797 158.481 378.307 182.334 393C183.167 394.5 183.134 396.8 176.334 394C135.913 377.356 102.57 364.3 76.5383 354.107L76.5356 354.106C32.6931 336.939 9.58871 327.892 8.33383 323.5C0.83383 319 -5.66617 239.5 7.83382 252.5C1.4343 267.699 36.9486 299.215 115.4 350.633C177.84 324.403 289.707 275.296 278.334 257C297.082 250.586 265.686 314.764 256.684 319.828C256.438 319.967 256.213 320.027 255.937 320.089C242.419 323.134 222.393 328.02 201.526 333.11L201.523 333.111L201.513 333.113L201.511 333.113L201.508 333.114C168.151 341.251 132.647 349.912 118.135 352.422Z" fill="black"/>
</svg>
